<svg width="961" height="175" viewBox="0 0 961 175" fill="none" xmlns="http://www.w3.org/2000/svg">
<circle cx="174.996" cy="99.7505" r="75.2495" fill="#D1D1D1"/>
<circle cx="117.253" cy="87.4995" r="87.4995" fill="#E5E5E5"/>
<circle cx="64.7495" cy="110.25" r="64.7495" fill="#F5F5F5"/>
<path d="M275.695 100.487C275.695 96.2306 276.493 92.0079 278.089 87.8185C279.685 83.5625 282.012 79.772 285.071 76.447C288.13 73.1221 291.854 70.4288 296.243 68.3673C300.632 66.3059 305.62 65.2751 311.206 65.2751C317.856 65.2751 323.608 66.7049 328.462 69.5643C333.383 72.4238 337.041 76.1478 339.435 80.7363L326.866 89.5142C326.068 87.6522 325.038 86.1227 323.774 84.9257C322.577 83.6622 321.247 82.6647 319.784 81.9332C318.321 81.1353 316.825 80.6033 315.295 80.3373C313.766 80.0048 312.27 79.8385 310.807 79.8385C307.681 79.8385 304.955 80.4703 302.627 81.7337C300.3 82.9972 298.371 84.6265 296.842 86.6215C295.312 88.6164 294.182 90.8774 293.45 93.4044C292.719 95.9314 292.353 98.4916 292.353 101.085C292.353 103.878 292.785 106.571 293.65 109.165C294.514 111.758 295.744 114.053 297.34 116.047C299.003 118.042 300.965 119.638 303.226 120.835C305.553 121.966 308.147 122.531 311.006 122.531C312.469 122.531 313.965 122.365 315.495 122.032C317.091 121.633 318.587 121.068 319.984 120.337C321.447 119.539 322.777 118.541 323.974 117.344C325.171 116.081 326.135 114.551 326.866 112.756L340.233 120.636C339.169 123.229 337.573 125.557 335.445 127.618C333.383 129.68 330.989 131.409 328.263 132.805C325.536 134.202 322.644 135.266 319.585 135.997C316.526 136.729 313.533 137.095 310.607 137.095C305.487 137.095 300.765 136.064 296.443 134.002C292.187 131.874 288.496 129.081 285.371 125.623C282.312 122.165 279.918 118.242 278.189 113.853C276.526 109.464 275.695 105.009 275.695 100.487Z" fill="white"/>
<path d="M346.963 63.6791H362.923V117.843C362.923 121.833 364.619 123.828 368.011 123.828C368.809 123.828 369.673 123.728 370.604 123.529C371.602 123.263 372.499 122.897 373.297 122.431L375.392 134.401C373.397 135.332 371.103 136.064 368.509 136.596C365.916 137.128 363.489 137.394 361.228 137.394C356.639 137.394 353.115 136.197 350.654 133.803C348.194 131.409 346.963 127.951 346.963 123.429V63.6791Z" fill="white"/>
<path d="M405.512 137.494C401.057 137.494 397.067 136.762 393.543 135.299C390.085 133.836 387.159 131.874 384.765 129.414C382.371 126.887 380.542 123.994 379.278 120.736C378.081 117.411 377.483 113.953 377.483 110.362C377.483 106.771 378.081 103.346 379.278 100.088C380.542 96.7626 382.371 93.8699 384.765 91.4094C387.159 88.8824 390.085 86.8875 393.543 85.4245C397.067 83.895 401.057 83.1302 405.512 83.1302C409.968 83.1302 413.925 83.895 417.383 85.4245C420.841 86.8875 423.767 88.8824 426.161 91.4094C428.555 93.8699 430.383 96.7626 431.647 100.088C432.91 103.346 433.542 106.771 433.542 110.362C433.542 113.953 432.91 117.411 431.647 120.736C430.45 123.994 428.654 126.887 426.26 129.414C423.866 131.874 420.907 133.836 417.383 135.299C413.925 136.762 409.968 137.494 405.512 137.494ZM393.842 110.362C393.842 114.485 394.939 117.81 397.134 120.337C399.328 122.797 402.121 124.027 405.512 124.027C407.175 124.027 408.704 123.695 410.101 123.03C411.497 122.365 412.694 121.434 413.692 120.237C414.756 119.04 415.587 117.61 416.186 115.948C416.784 114.219 417.083 112.357 417.083 110.362C417.083 106.239 415.986 102.947 413.792 100.487C411.597 97.9596 408.837 96.6961 405.512 96.6961C403.85 96.6961 402.287 97.0286 400.824 97.6936C399.428 98.3586 398.198 99.2896 397.134 100.487C396.136 101.684 395.338 103.147 394.74 104.876C394.141 106.538 393.842 108.367 393.842 110.362Z" fill="white"/>
<path d="M457.317 137.494C451.931 137.494 447.841 135.831 445.048 132.506C442.322 129.115 440.959 124.16 440.959 117.643V84.1277H456.918V114.152C456.918 117.344 457.55 119.805 458.814 121.534C460.077 123.196 461.873 124.027 464.2 124.027C466.328 124.027 468.39 123.462 470.385 122.332C472.38 121.201 474.142 119.239 475.671 116.446V84.1277H491.631V118.541C491.631 120.137 491.864 121.268 492.33 121.933C492.862 122.531 493.759 122.897 495.023 123.03V136.496C493.493 136.829 492.197 137.028 491.133 137.095C490.069 137.228 489.104 137.294 488.24 137.294C482.521 137.294 479.262 135.066 478.464 130.611L478.165 127.419C475.771 130.877 472.779 133.437 469.188 135.1C465.663 136.696 461.706 137.494 457.317 137.494Z" fill="white"/>
<path d="M525.741 137.494C522.15 137.494 518.825 136.829 515.766 135.499C512.773 134.102 510.18 132.174 507.986 129.713C505.791 127.253 504.062 124.393 502.799 121.135C501.602 117.81 501.003 114.186 501.003 110.262C501.003 106.472 501.568 102.914 502.699 99.5889C503.829 96.2639 505.425 93.4044 507.487 91.0104C509.548 88.5499 511.975 86.6215 514.768 85.225C517.628 83.8285 520.753 83.1302 524.145 83.1302C527.802 83.1302 531.094 83.9947 534.02 85.7237C537.013 87.4527 539.307 89.7802 540.903 92.7062V63.6791H556.863V118.541C556.863 120.137 557.095 121.268 557.561 121.933C558.093 122.531 558.991 122.897 560.254 123.03V136.496C558.791 136.829 557.528 137.028 556.464 137.095C555.4 137.228 554.402 137.294 553.471 137.294C550.678 137.294 548.417 136.729 546.688 135.598C544.959 134.401 543.962 132.706 543.696 130.511L543.397 127.818C541.535 131.076 539.008 133.504 535.816 135.1C532.69 136.696 529.332 137.494 525.741 137.494ZM530.03 124.027C532.225 124.027 534.319 123.396 536.314 122.132C538.376 120.802 539.939 119.007 541.003 116.746V105.773C540.005 103.113 538.376 100.952 536.115 99.2896C533.92 97.5606 531.626 96.6961 529.232 96.6961C527.503 96.6961 525.907 97.0951 524.444 97.8931C523.048 98.6246 521.817 99.6221 520.753 100.886C519.689 102.149 518.858 103.612 518.26 105.275C517.728 106.937 517.462 108.699 517.462 110.561C517.462 112.49 517.761 114.285 518.359 115.948C519.024 117.61 519.889 119.04 520.953 120.237C522.083 121.434 523.413 122.365 524.943 123.03C526.539 123.695 528.235 124.027 530.03 124.027Z" fill="white"/>
<path d="M570.558 136.496V65.6741H596.992C602.844 65.6741 607.964 66.6051 612.353 68.4671C616.742 70.3291 620.399 72.8561 623.325 76.048C626.318 79.24 628.546 82.9972 630.009 87.3197C631.538 91.5757 632.303 96.1309 632.303 100.985C632.303 106.372 631.472 111.26 629.809 115.648C628.147 119.971 625.753 123.695 622.627 126.82C619.568 129.879 615.844 132.273 611.455 134.002C607.133 135.665 602.312 136.496 596.992 136.496H570.558ZM615.645 100.985C615.645 97.8599 615.212 95.0336 614.348 92.5067C613.55 89.9132 612.353 87.6855 610.757 85.8235C609.161 83.9615 607.199 82.5317 604.872 81.5343C602.544 80.5368 599.918 80.038 596.992 80.038H586.917V122.132H596.992C599.984 122.132 602.644 121.6 604.972 120.536C607.299 119.472 609.228 118.009 610.757 116.147C612.353 114.219 613.55 111.991 614.348 109.464C615.212 106.871 615.645 104.044 615.645 100.985Z" fill="white"/>
<path d="M665.701 137.494C661.312 137.494 657.355 136.795 653.831 135.399C650.373 133.936 647.414 131.974 644.953 129.514C642.559 127.053 640.73 124.227 639.467 121.035C638.203 117.776 637.572 114.385 637.572 110.861C637.572 107.07 638.203 103.512 639.467 100.187C640.73 96.7959 642.559 93.8367 644.953 91.3097C647.347 88.7827 650.273 86.7877 653.731 85.3247C657.256 83.8617 661.246 83.1302 665.701 83.1302C670.157 83.1302 674.113 83.8617 677.571 85.3247C681.029 86.7877 683.955 88.7827 686.349 91.3097C688.743 93.7702 690.539 96.6296 691.736 99.8881C692.999 103.147 693.631 106.571 693.631 110.162C693.631 111.093 693.598 112.024 693.531 112.955C693.465 113.82 693.365 114.585 693.232 115.25H654.529C654.795 118.774 656.059 121.467 658.32 123.329C660.647 125.125 663.274 126.022 666.2 126.022C668.527 126.022 670.755 125.457 672.883 124.327C675.077 123.196 676.54 121.667 677.272 119.738L690.838 123.529C688.776 127.652 685.584 131.01 681.262 133.603C676.939 136.197 671.753 137.494 665.701 137.494ZM676.773 105.374C676.441 102.049 675.244 99.4226 673.182 97.4941C671.121 95.5656 668.561 94.6014 665.502 94.6014C662.376 94.6014 659.783 95.5989 657.721 97.5939C655.726 99.5224 654.562 102.116 654.23 105.374H676.773Z" fill="white"/>
<path d="M703.769 136.496V100.487H697.085V88.4169H703.769V84.1277C703.769 80.8693 704.201 77.91 705.065 75.25C705.93 72.5901 707.16 70.3291 708.756 68.4671C710.352 66.6051 712.281 65.1754 714.542 64.1779C716.803 63.1804 719.296 62.6816 722.023 62.6816C726.279 62.6816 730.834 63.7124 735.688 65.7739L732.796 77.7438C731.732 77.2783 730.535 76.9125 729.205 76.6465C727.941 76.314 726.744 76.1478 725.614 76.1478C721.69 76.1478 719.729 78.6083 719.729 83.5292V88.4169H731.898V100.487H719.729V136.496H703.769Z" fill="white"/>
<path d="M761.164 137.494C756.775 137.494 752.819 136.795 749.294 135.399C745.836 133.936 742.877 131.974 740.416 129.514C738.022 127.053 736.194 124.227 734.93 121.035C733.667 117.776 733.035 114.385 733.035 110.861C733.035 107.07 733.667 103.512 734.93 100.187C736.194 96.7959 738.022 93.8367 740.416 91.3097C742.81 88.7827 745.736 86.7877 749.194 85.3247C752.719 83.8617 756.709 83.1302 761.164 83.1302C765.62 83.1302 769.577 83.8617 773.035 85.3247C776.493 86.7877 779.418 88.7827 781.812 91.3097C784.206 93.7702 786.002 96.6296 787.199 99.8881C788.462 103.147 789.094 106.571 789.094 110.162C789.094 111.093 789.061 112.024 788.994 112.955C788.928 113.82 788.828 114.585 788.695 115.25H749.992C750.258 118.774 751.522 121.467 753.783 123.329C756.11 125.125 758.737 126.022 761.663 126.022C763.991 126.022 766.218 125.457 768.346 124.327C770.541 123.196 772.004 121.667 772.735 119.738L786.301 123.529C784.24 127.652 781.048 131.01 776.725 133.603C772.403 136.197 767.216 137.494 761.164 137.494ZM772.237 105.374C771.904 102.049 770.707 99.4226 768.646 97.4941C766.584 95.5656 764.024 94.6014 760.965 94.6014C757.839 94.6014 755.246 95.5989 753.184 97.5939C751.189 99.5224 750.026 102.116 749.693 105.374H772.237Z" fill="white"/>
<path d="M846.801 136.496H830.841V107.07C830.841 103.612 830.176 101.118 828.846 99.5889C827.582 97.9929 825.887 97.1949 823.759 97.1949C822.628 97.1949 821.498 97.4276 820.367 97.8931C819.237 98.3586 818.139 99.0236 817.075 99.8881C816.011 100.686 815.047 101.65 814.183 102.781C813.385 103.911 812.753 105.142 812.287 106.472V136.496H796.328V84.1277H810.692V92.9057C812.62 89.7802 815.346 87.3862 818.871 85.7237C822.395 83.9947 826.452 83.1302 831.04 83.1302C834.432 83.1302 837.158 83.762 839.22 85.0255C841.281 86.2225 842.877 87.8185 844.008 89.8134C845.138 91.7419 845.87 93.8699 846.202 96.1974C846.601 98.5249 846.801 100.786 846.801 102.98V136.496Z" fill="white"/>
<path d="M878.053 137.494C873.597 137.494 869.208 136.795 864.886 135.399C860.563 133.936 856.906 131.841 853.913 129.115L859.599 119.339C862.791 121.534 865.883 123.229 868.876 124.426C871.935 125.623 874.861 126.222 877.654 126.222C879.715 126.222 881.311 125.856 882.442 125.125C883.572 124.393 884.138 123.329 884.138 121.933C884.138 120.536 883.406 119.439 881.943 118.641C880.547 117.776 878.053 116.879 874.462 115.948C870.937 114.95 867.945 113.986 865.484 113.055C863.09 112.124 861.129 111.093 859.599 109.963C858.07 108.832 856.972 107.536 856.307 106.073C855.642 104.61 855.31 102.881 855.31 100.886C855.31 98.2256 855.842 95.7984 856.906 93.6039C857.97 91.4094 859.433 89.5474 861.295 88.018C863.157 86.4885 865.351 85.2915 867.878 84.427C870.472 83.5625 873.265 83.1302 876.257 83.1302C880.181 83.1302 883.838 83.6622 887.23 84.7262C890.688 85.7902 894.013 87.7187 897.205 90.5117L891.02 100.088C888.028 98.0261 885.368 96.5299 883.04 95.5989C880.713 94.6679 878.452 94.2024 876.257 94.2024C874.528 94.2024 873.065 94.5682 871.868 95.2996C870.671 95.9646 870.073 97.0619 870.073 98.5914C870.073 100.054 870.705 101.152 871.968 101.883C873.298 102.615 875.725 103.413 879.25 104.277C882.974 105.275 886.099 106.272 888.626 107.27C891.22 108.267 893.314 109.398 894.91 110.661C896.506 111.858 897.67 113.255 898.402 114.851C899.133 116.446 899.499 118.342 899.499 120.536C899.499 125.723 897.57 129.846 893.713 132.905C889.856 135.964 884.636 137.494 878.053 137.494Z" fill="white"/>
<path d="M932.219 137.494C927.83 137.494 923.873 136.795 920.349 135.399C916.891 133.936 913.932 131.974 911.471 129.514C909.077 127.053 907.248 124.227 905.985 121.035C904.721 117.776 904.09 114.385 904.09 110.861C904.09 107.07 904.721 103.512 905.985 100.187C907.248 96.7959 909.077 93.8367 911.471 91.3097C913.865 88.7827 916.791 86.7877 920.249 85.3247C923.774 83.8617 927.764 83.1302 932.219 83.1302C936.674 83.1302 940.631 83.8617 944.089 85.3247C947.547 86.7877 950.473 88.7827 952.867 91.3097C955.261 93.7702 957.057 96.6296 958.254 99.8881C959.517 103.147 960.149 106.571 960.149 110.162C960.149 111.093 960.116 112.024 960.049 112.955C959.983 113.82 959.883 114.585 959.75 115.25H921.047C921.313 118.774 922.577 121.467 924.838 123.329C927.165 125.125 929.792 126.022 932.718 126.022C935.045 126.022 937.273 125.457 939.401 124.327C941.595 123.196 943.058 121.667 943.79 119.738L957.356 123.529C955.294 127.652 952.102 131.01 947.78 133.603C943.457 136.197 938.271 137.494 932.219 137.494ZM943.291 105.374C942.959 102.049 941.762 99.4226 939.7 97.4941C937.639 95.5656 935.078 94.6014 932.02 94.6014C928.894 94.6014 926.301 95.5989 924.239 97.5939C922.244 99.5224 921.08 102.116 920.748 105.374H943.291Z" fill="white"/>
</svg>
